# xmcd
#
# Track frame offsets: 
#        150
#        14448
#        25736
#        41319
#        56088
#        72994
#        80701
#        89263
#        99492
#        121301
#        138285
#        145933
#        152878
#        158458
#        173240
#        186808
#        203034
#        215719
#        233866
#        248203
#        258445
#        266328
#        275938
#        288891
#        300631
#        328192
#
# Disc length: 4707 seconds
#
# Revision: 1
# Processed by: cddbd v1.5.2PL0 Copyright (c) Steve Scherf et al.
# Submitted via: ExactAudioCopy v1.1
#
DISCID=7912611a
DTITLE=Barbara Hendricks - The Very Best of Barbara Hendricks [CD2 
DTITLE=of 2)
DYEAR=2005
DGENRE=Classical
TTITLE0=Dans un bois solitaire (Mozart)
TTITLE1=Die Forelle (Schubert)
TTITLE2=Gretchen am Spinnrade (Schubert)
TTITLE3=An Sylvia (Schubert)
TTITLE4=Ständchen (Schwanengesang) (Schubert)
TTITLE5=Lachen und Weinen (Schubert)
TTITLE6=Heidenröslein (Schubert)
TTITLE7=Ständchen (R. Strauss)
TTITLE8=Wiegenlied (R. Strauss)
TTITLE9=Morgen (R. Strauss)
TTITLE10=Zueignung (R. Strauss)
TTITLE11=Jeg elsker Dig (Grieg)
TTITLE12=Gruß (Grieg)
TTITLE13=Après un rêve (Fauré)
TTITLE14=Clair de lune (Fauré)
TTITLE15=C'est l'extase langoureuse (Ariettes oubliées) (Debussy)
TTITLE16=Il pleure dans mon cœur (Ariettes oubliées) (Debussy)
TTITLE17=L'Invitation au voyage (Duparc)
TTITLE18=Les Filles de Cadix (Delibes)
TTITLE19=Rêverie (Hahn)
TTITLE20=Le Rossignol des lilas (Hahn)
TTITLE21=Si mes vers avaient des ailes (Hahn)
TTITLE22=Plaisir d'amour (Martini)
TTITLE23=Vocalise en forme de habanera (Ravel)
TTITLE24=Aria (Bachianas brasileiras No.5) (Villa-Lobos)
TTITLE25=Vilja-Lied (Die lustige Witwe) (Lehár)
EXTD=
EXTT0=
EXTT1=
EXTT2=
EXTT3=
EXTT4=
EXTT5=
EXTT6=
EXTT7=
EXTT8=
EXTT9=
EXTT10=
EXTT11=
EXTT12=
EXTT13=
EXTT14=
EXTT15=
EXTT16=
EXTT17=
EXTT18=
EXTT19=
EXTT20=
EXTT21=
EXTT22=
EXTT23=
EXTT24=
EXTT25=
PLAYORDER=
